<?xml version="1.0" encoding="UTF-8"?>
<svg id="Ebene_2" xmlns="http://www.w3.org/2000/svg" viewBox="0 0 376.5 397.9">
  <defs>
    <style>
      .cls-1 {
        fill: #1d1d1b;
      }
    </style>
  </defs>
  <g id="Ebene_7">
    <g>
      <path class="cls-1" d="M333.02,324.22s0,0,0,0c0,0-.01,0-.02,0h.02Z"/>
      <path class="cls-1" d="M372.38,326.84s-.02,0-.02.01c0,0,0,0,0,.01,0,0,.03-.03.03-.03Z"/>
      <path class="cls-1" d="M252.41,41.44s0,0,0,0c0,0,0,0-.01,0h.02Z"/>
      <polygon class="cls-1" points="376.49 327.9 376.49 327.89 376.5 327.88 376.49 327.9"/>
      <polygon class="cls-1" points="375.75 326.51 375.74 326.51 375.74 326.51 375.75 326.51"/>
      <path class="cls-1" d="M251.19,40.3s0,0,0,0c0,0,0,0-.01,0h.02Z"/>
      <path class="cls-1" d="M361.72,330.7c-2.29-5.55-2.68-11.6-3.01-17.57-.43-7.81-.56-15.66-2.98-23.2-2.31-7.17-5-14.2-7.99-21.13-2.19-5.08-5.43-9.34-8.66-13.7-2.15-2.9-3.08-6.36-3.29-9.89-.51-8.3-5.36-17.59-4.93-25.88-3.94,2.63-4.6,2.53-8.81,5.65,1.85,11.32,4.54,25.88,6.81,37.14,2.17,10.78,5.17,21.27,9.29,31.48,1.36,3.37,3.11,6.68,3.4,10.42,1.42,3.4,2.82,6.8,1.56,10.59.44.62.41,1.29.37,2.02-.25,4.63-6.03,7.84-7.8,7.75-11.45-.59-22.88-1.49-34.28-2.63-9.05-.9-18.1-1.81-27.15-2.73-9.98-1.02-19.87-2.94-30.02-1.06-8.95,1.65-17.66,3.56-25.29,8.93-8.12,5.71-16.58,10.9-24.95,16.23-2.09,1.33-4.53,2.28-6.03,4.45.67.46-2.79,3.22-3.73,3.76,0,0-10.25,6.31-11.33,7.65-.39.48-.89.42-1.52.88-2.3,1.69-3.36,2.26-5.08,3.37-6.31,4.09-11.72,9.5-18.64,12.71-6.64,3.08-13.82.98-17.64-5.22-.38-.62-.73-1.2-.64-1.95-2.92-2.73-3.31-6.38-3.69-10.04-1.53-3.43-1.58-7.17-2-10.78-1.26-10.94-3.64-21.59-6.89-32.09-4.03-13.02-9.03-25.69-13.35-38.6-1.36-4.06-4.82-6.14-7.85-8.6-12.82-10.37-25.94-20.39-39.63-29.54-13.56-9.06-26.24-19.07-37.8-30.54-1.67-1.66-3.48-3.14-5.05-4.97-5.02-5.86-3.38-11.89,1.1-16.75,5.29-5.75,11.99-9.72,17.99-14.57,6.82-5.5,15.12-8.13,22.83-11.91,11.11-5.45,22.32-10.73,32.54-17.81,1.15-.8,5.07-3.5,6.06-4.19,4.38-3.05,8.57-6.41,13.17-9.08,6.11-3.54,9.77-8.96,13.23-14.82,3.21-5.45,5.94-11.09,8.25-16.95.23-.6,7.53-27.67,8.43-27.66,1.4-.08,1.22-1.69,2.14-2.23,0-.59-.1-1.21.53-1.59-.01-.59-.1-1.21.53-1.58-.01-.59-.1-1.21.53-1.58-.19-1.45.36-2.76.77-4.1,2.34-7.72,5.13-15.32,6.2-23.36.45-3.38,1.88-6.17,4.38-8.41,3.86-3.46,8.19-4.43,12.37.03,5.41,5.76,10.95,11.49,17.08,16.45,8.03,6.5,16.67,12.24,25.05,18.3,5.47,3.95,11.09,7.78,14.85,13.56,3.05,4.69,14.07,14.43,18.88,16.79,3.12-7.72,9.4-17.34,17.29-21.14-.12-.07-8.75-3.35-8.87-3.43-2.28-1.47-4.8-2.55-7.16-3.91-4.34-2.5-8.54-5.32-11.98-8.94-5.15-5.42-9.27-11.65-13.14-18.06l-9.9-9.6c-11.04-6.18-21.22-13.6-31.6-20.79-8.83-6.11-18.97-8.61-29.31-3.51-8.38,4.12-14.41,10.58-17.5,19.74-4.44,13.13-9.45,26.07-13.75,39.26-1.4,4.29-1.86,8.71-2.42,13.15-.91,7.22-4.23,13.71-6.52,20.51-2.79,8.29-8.91,14.41-13.96,21.22-2.5,3.38-4.98,6.78-7.54,10.12-1.32,1.73-3.97,3.68-5.43,5.08-5.17,4.94-11.33,8.26-17.84,10.98-4.53,1.9-9.28,3.3-13.71,5.39-7.1,3.35-13.06,8.54-19.54,12.89-8.27,5.55-15.97,11.84-21.55,20.21-7.62,11.42-7.45,15.6.13,25.29,1.85,2.37,4.4,4.03,6.51,6.14,8.17,8.12,14.21,20.25,22.4,28.34,5.67,5.6,12.22,9.73,20.22,11.03,4.13.67,7.39,2.36,9.6,6.09,2.9,4.89,6.57,5.68,11.14,9.1,2.42,1.81,5.07,6.92,6.94,9.41,7.34,9.76,14.93,16.62,20.08,27.62,1.5,3.2,2.34,6.68,1.83,10.26-.75,5.37-1.56,10.67-1.06,16.17.69,7.52,1.68,14.97,3.09,22.38,1.48,7.78,5.12,14.73,8.48,21.8,2.56,5.4,5.11,10.89,5.76,16.87.33,3.08,1.67,3.08,3.88,2.78,5.83-.79,11.53-2.12,17.2-3.65,8.31-2.24,16.58-4.57,23.99-9.18.96-.6,1.82-1.09,1.58-2.4h-.02c-.17-.27-.34-.53-.51-.79-.48-.53-.48-1.05,0-1.58-.06-.34,2.29-2.26,3.14-1.31,4.5.38,7.72-2.13,10.94-4.77,2.3-1.88,4.82-3.5,7.14-5.37,2.62-2.11,5.64-3.72,7.78-6.4.02-.6,3.22-2.42,3.17-1.51.93.34,3.2-2.47,4.24-3.08.15-.99,6.06-6.9,8.41-8.08.63-.32,1.15-.37,1.68.1,1.01.9,2.12.65,3.22.25,13.25-4.71,26.77-8.2,40.76-9.97,9.45-1.2,18.72-2.1,28.06.91,7.48,2.41,15.07,4.54,23.07,4.77,5.06.14,10.09.97,15.14,1.4,2.57.22,4.87-.14,6.84-1.3,4.13-.66,8.22-1.61,12.3-2.59,5.71-1.37,11.36-2.92,16.85-5.02,2.09-.8,3.26-1.44,2.08-4.3Z"/>
      <path class="cls-1" d="M249.96,39.16s0,0,0,0c0,0,0,0-.01,0h.02Z"/>
      <path class="cls-1" d="M248.74,38.02s0,0,0,0c0,0,0,0-.01,0,0,0,.02.01.02.01Z"/>
    </g>
    <g>
      <path class="cls-1" d="M296.75,329.55s0,0,0,0c0,0-.01,0-.02,0h.02Z"/>
      <path class="cls-1" d="M336.1,332.17s-.02,0-.02.01c0,0,0,0,0,.01,0,0,.03-.03.03-.03Z"/>
      <path class="cls-1" d="M216.13,46.78s0,0,0,0c0,0,0,0-.01,0h.02Z"/>
      <polygon class="cls-1" points="340.22 333.23 340.22 333.22 340.22 333.21 340.22 333.23"/>
      <polygon class="cls-1" points="339.47 331.85 339.47 331.84 339.46 331.84 339.47 331.85"/>
      <path class="cls-1" d="M214.91,45.64s0,0,0,0c0,0,0,0-.01,0h.02Z"/>
      <path class="cls-1" d="M370.23,333.9c-2.29-5.55-2.68-11.6-3.01-17.57-.43-7.81-.56-15.66-2.98-23.2-2.31-7.17-5-14.2-7.99-21.13-2.19-5.08-5.43-9.34-8.66-13.7-2.15-2.9-3.08-6.36-3.29-9.89-.51-8.3-3.61-25.65-3.18-33.93-3.91,2.78-9.21,3.51-12.96,6.54,1.85,11.32,6.95,33.05,9.21,44.31,2.17,10.78,5.17,21.27,9.29,31.48,1.36,3.37,3.11,6.68,3.4,10.42,1.42,3.4,2.82,6.8,1.56,10.59.44.62.41,1.29.37,2.02-.25,4.63-6.03,7.84-7.8,7.75-11.45-.59-22.88-1.49-34.28-2.63-9.05-.9-18.1-1.81-27.15-2.73-9.98-1.02-19.87-2.94-30.02-1.06-8.95,1.65-17.66,3.56-25.29,8.93-8.12,5.71-16.58,10.9-24.95,16.23-2.09,1.33-4.53,2.28-6.03,4.45.67.46-2.79,3.22-3.73,3.76,0,0-10.25,6.31-11.33,7.65-.39.48-.89.42-1.52.88-2.3,1.69-3.36,2.26-5.08,3.37-6.31,4.09-11.72,9.5-18.64,12.71-6.64,3.08-13.82.98-17.64-5.22-.38-.62-.73-1.2-.64-1.95-2.92-2.73-3.31-6.38-3.69-10.04-1.53-3.43-1.58-7.17-2-10.78-1.26-10.94-3.64-21.59-6.89-32.09-4.03-13.02-9.03-25.69-13.35-38.6-1.36-4.06-4.82-6.14-7.85-8.6-12.82-10.37-25.94-20.39-39.63-29.54-13.56-9.06-26.24-19.07-37.8-30.54-1.67-1.66-3.48-3.14-5.05-4.97-5.02-5.86-3.38-11.89,1.1-16.75,5.29-5.75,11.99-9.72,17.99-14.57,6.82-5.5,15.12-8.13,22.83-11.91,11.11-5.45,22.32-10.73,32.54-17.81,1.15-.8,5.07-3.5,6.06-4.19,4.38-3.05,8.57-6.41,13.17-9.08,6.11-3.54,9.77-8.96,13.23-14.82,3.21-5.45,5.94-11.09,8.25-16.95.23-.6,7.53-27.67,8.43-27.66,1.4-.08,1.22-1.69,2.14-2.23,0-.59-.1-1.21.53-1.59-.01-.59-.1-1.21.53-1.58-.01-.59-.1-1.21.53-1.58-.19-1.45.36-2.76.77-4.1,2.34-7.72,5.13-15.32,6.2-23.36.45-3.38,1.88-6.17,4.38-8.41,3.86-3.46,8.19-4.43,12.37.03,5.41,5.76,10.95,11.49,17.08,16.45,8.03,6.5,16.67,12.24,25.05,18.3,5.47,3.95,11.09,7.78,14.85,13.56,3.05,4.69,7,8.08,11.8,10.45,3.46-6.99,9.14-14.46,15.86-18-.12-.07-.24-.14-.36-.22-2.28-1.47-4.8-2.55-7.16-3.91-4.34-2.5-8.54-5.32-11.98-8.94-5.15-5.42-9.27-11.65-13.14-18.06l-9.9-9.6c-11.04-6.18-21.22-13.6-31.6-20.79-8.83-6.11-18.97-8.61-29.31-3.51-8.38,4.12-14.41,10.58-17.5,19.74-4.44,13.13-9.45,26.07-13.75,39.26-1.4,4.29-1.86,8.71-2.42,13.15-.91,7.22-4.23,13.71-6.52,20.51-2.79,8.29-8.91,14.41-13.96,21.22-2.5,3.38-4.98,6.78-7.54,10.12-1.32,1.73-3.97,3.68-5.43,5.08-5.17,4.94-11.33,8.26-17.84,10.98-4.53,1.9-9.28,3.3-13.71,5.39-7.1,3.35-13.06,8.54-19.54,12.89-8.27,5.55-15.97,11.84-21.55,20.21-7.62,11.42-7.45,15.6.13,25.29,1.85,2.37,4.4,4.03,6.51,6.14,8.17,8.12,10.21,15.04,18.41,23.13,5.67,5.6,12.22,9.73,20.22,11.03,4.13.67,7.39,2.36,9.6,6.09,2.9,4.89,6.85,8.81,11.41,12.23,2.42,1.81,10.85,5.06,12.73,7.56,7.34,9.76,12.87,20.55,18.02,31.55,1.5,3.2,2.34,6.68,1.83,10.26-.75,5.37-1.56,10.67-1.06,16.17.69,7.52,1.68,14.97,3.09,22.38,1.48,7.78,5.12,14.73,8.48,21.8,2.56,5.4,5.11,10.89,5.76,16.87.33,3.08,1.67,3.08,3.88,2.78,5.83-.79,11.53-2.12,17.2-3.65,8.31-2.24,16.58-4.57,23.99-9.18.96-.6,1.82-1.09,1.58-2.4h-.02c-.17-.27-.34-.53-.51-.79-.48-.53-.48-1.05,0-1.58-.06-.34,2.29-2.26,3.14-1.31,4.5.38,7.72-2.13,10.94-4.77,2.3-1.88,4.82-3.5,7.14-5.37,2.62-2.11,5.64-3.72,7.78-6.4.02-.6,3.22-2.42,3.17-1.51.93.34,3.2-2.47,4.24-3.08.15-.99,6.06-6.9,8.41-8.08.63-.32,1.15-.37,1.68.1,1.01.9,2.12.65,3.22.25,13.25-4.71,26.77-8.2,40.76-9.97,9.45-1.2,18.72-2.1,28.06.91,7.48,2.41,15.07,4.54,23.07,4.77,5.06.14,10.09.97,15.14,1.4,2.57.22,4.87-.14,6.84-1.3,4.13-.66,8.22-1.61,12.3-2.59,5.71-1.37,11.36-2.92,16.85-5.02,2.09-.8,3.26-1.44,2.08-4.3Z"/>
      <path class="cls-1" d="M213.69,44.5s0,0,0,0c0,0,0,0-.01,0h.02Z"/>
      <path class="cls-1" d="M212.47,43.36s0,0,0,0c0,0,0,0-.01,0,0,0,.02.01.02.01Z"/>
    </g>
    <g>
      <path class="cls-1" d="M103.85,188.02h-12.33v-8.24c0-2.4-.13-3.89-.39-4.49-.26-.59-.85-.89-1.74-.89-1.02,0-1.66.36-1.93,1.08-.27.72-.41,2.29-.41,4.69v22.03c0,2.3.14,3.81.41,4.51s.89,1.05,1.85,1.05,1.52-.35,1.8-1.06c.28-.71.42-2.36.42-4.96v-5.96h12.33v1.85c0,4.91-.35,8.39-1.04,10.45-.69,2.05-2.23,3.85-4.6,5.4-2.37,1.54-5.3,2.32-8.78,2.32s-6.59-.65-8.94-1.96c-2.34-1.31-3.9-3.12-4.66-5.43s-1.14-5.8-1.14-10.44v-13.86c0-3.42.12-5.98.35-7.69.23-1.71.93-3.35,2.1-4.94,1.16-1.58,2.77-2.83,4.83-3.74,2.06-.91,4.43-1.36,7.1-1.36,3.63,0,6.63.7,8.99,2.11,2.36,1.41,3.92,3.16,4.66,5.25.74,2.1,1.11,5.36,1.11,9.79v4.51Z"/>
      <path class="cls-1" d="M139.08,175.57v38.88h-12.04l.21-3.23c-.82,1.31-1.83,2.29-3.03,2.95-1.2.66-2.58.98-4.15.98-1.78,0-3.25-.31-4.42-.94s-2.04-1.45-2.59-2.49c-.56-1.04-.9-2.11-1.04-3.24-.14-1.12-.21-3.35-.21-6.69v-26.22h11.84v26.46c0,3.03.09,4.82.28,5.39.19.57.69.85,1.51.85.88,0,1.4-.29,1.57-.88.17-.59.25-2.47.25-5.65v-26.16h11.84Z"/>
      <path class="cls-1" d="M164.67,175.57v11.55c-2.17,0-5.19.29-6.2.88s-1.64,1.4-1.88,2.45c-.23,1.04-.35,4.88-.35,8.65v15.35h-10.41v-30.4c0-4.68,3.8-8.48,8.48-8.48h10.36Z"/>
      <path class="cls-1" d="M189.49,175.57v11.55c-2.17,0-5.15.29-6.17.88s-1.64,1.4-1.88,2.45c-.23,1.04-.35,4.88-.35,8.65v15.35h-10.44v-30.38c0-4.69,3.8-8.5,8.5-8.5h10.34Z"/>
      <path class="cls-1" d="M221.43,195.34h-15.32v8.41c0,1.76.13,2.89.38,3.4.25.51.74.76,1.46.76.9,0,1.5-.34,1.8-1.01s.45-1.98.45-3.91v-5.13h11.22v2.87c0,2.4-.15,4.25-.45,5.54s-1.01,2.67-2.12,4.13-2.52,2.56-4.23,3.3-3.85,1.1-6.43,1.1-4.71-.36-6.62-1.08c-1.91-.72-3.4-1.71-4.47-2.97-1.07-1.26-1.8-2.65-2.21-4.16-.41-1.51-.62-3.72-.62-6.61v-11.34c0-3.4.46-6.08,1.38-8.04s2.42-3.47,4.51-4.51c2.09-1.04,4.49-1.57,7.21-1.57,3.32,0,6.06.63,8.22,1.89s3.67,2.93,4.54,5.01,1.3,5.01,1.3,8.77v5.16ZM209.57,189.02v-2.84c0-2.01-.11-3.31-.32-3.9s-.65-.88-1.32-.88c-.82,0-1.33.25-1.52.75s-.29,1.84-.29,4.03v2.84h3.46Z"/>
      <path class="cls-1" d="M239.84,175.22l-.21,3.58c.86-1.43,1.91-2.5,3.15-3.21s2.67-1.07,4.29-1.07c2.03,0,3.69.48,4.98,1.44,1.29.96,2.12,2.16,2.49,3.62.37,1.46.56,3.88.56,7.28v27.25h-11.84v-26.92c0-2.68-.09-4.31-.26-4.89s-.66-.88-1.46-.88-1.37.34-1.58,1.01-.32,2.48-.32,5.41v26.28h-11.84v-38.88h12.04Z"/>
      <path class="cls-1" d="M274.15,170.03v6.12h3.19v6.15h-3.19v20.8c0,2.56.13,3.98.4,4.28s1.36.44,3.29.44v6.27h-4.78c-2.7,0-4.62-.11-5.77-.34-1.15-.22-2.17-.74-3.05-1.55-.88-.81-1.43-1.74-1.64-2.78-.21-1.04-.32-3.5-.32-7.37v-19.75h-2.55v-6.15h2.55v-6.12h11.87Z"/>
    </g>
    <g>
      <path class="cls-1" d="M174.09,237.42h-11.46v-3.52c0-1.64-.15-2.68-.44-3.13-.29-.45-.78-.67-1.46-.67-.74,0-1.3.3-1.68.91-.38.61-.57,1.52-.57,2.76,0,1.58.21,2.78.64,3.58.41.8,1.57,1.77,3.49,2.9,5.49,3.26,8.95,5.93,10.37,8.02,1.43,2.09,2.14,5.46,2.14,10.11,0,3.38-.39,5.87-1.19,7.47-.79,1.6-2.32,2.94-4.59,4.03s-4.9,1.63-7.91,1.63c-3.3,0-6.12-.62-8.45-1.88-2.33-1.25-3.86-2.84-4.59-4.78s-1.08-4.68-1.08-8.23v-3.11h11.46v5.77c0,1.78.16,2.92.48,3.43.32.51.89.76,1.71.76s1.43-.32,1.83-.97c.4-.64.6-1.6.6-2.87,0-2.79-.38-4.62-1.14-5.48-.78-.86-2.71-2.29-5.77-4.31-3.07-2.03-5.1-3.5-6.09-4.42-1-.92-1.82-2.19-2.47-3.81-.66-1.62-.98-3.69-.98-6.21,0-3.63.46-6.29,1.39-7.97.93-1.68,2.43-2.99,4.5-3.94,2.07-.95,4.57-1.42,7.5-1.42,3.2,0,5.93.52,8.19,1.55,2.26,1.04,3.75,2.34,4.48,3.91.73,1.57,1.1,4.24,1.1,8.01v1.88Z"/>
      <path class="cls-1" d="M193.61,226.43v6.12h3.19v6.15h-3.19v20.8c0,2.56.13,3.98.4,4.28s1.36.44,3.29.44v6.27h-4.78c-2.7,0-4.62-.11-5.77-.34-1.15-.22-2.17-.74-3.05-1.55-.88-.81-1.43-1.74-1.64-2.78-.21-1.04-.32-3.5-.32-7.37v-19.75h-2.55v-6.15h2.55v-6.12h11.87Z"/>
      <path class="cls-1" d="M222.75,231.62v11.56c-2.17,0-5.16.29-6.18.88s-1.64,1.4-1.88,2.45c-.23,1.04-.35,4.88-.35,8.64v15.35h-10.43v-30.37c0-4.7,3.81-8.5,8.5-8.5h10.33Z"/>
      <path class="cls-1" d="M253.69,251.74h-15.32v8.41c0,1.76.13,2.89.38,3.4.25.51.74.76,1.46.76.9,0,1.5-.34,1.8-1.01.3-.67.45-1.98.45-3.91v-5.13h11.22v2.87c0,2.4-.15,4.25-.45,5.54-.3,1.29-1.01,2.67-2.12,4.13s-2.52,2.56-4.23,3.3c-1.71.73-3.85,1.1-6.43,1.1s-4.71-.36-6.62-1.08c-1.91-.72-3.4-1.71-4.47-2.97-1.07-1.26-1.8-2.65-2.21-4.16-.41-1.51-.62-3.72-.62-6.61v-11.34c0-3.4.46-6.08,1.38-8.04s2.42-3.47,4.51-4.51c2.09-1.04,4.49-1.57,7.21-1.57,3.32,0,6.06.63,8.22,1.89,2.16,1.26,3.67,2.93,4.54,5.01.87,2.08,1.3,5.01,1.3,8.77v5.16ZM241.83,245.42v-2.84c0-2.01-.11-3.31-.32-3.9s-.65-.88-1.32-.88c-.82,0-1.33.25-1.52.75s-.29,1.84-.29,4.03v2.84h3.46Z"/>
      <path class="cls-1" d="M285.86,251.74h-15.32v8.41c0,1.76.13,2.89.38,3.4.25.51.74.76,1.46.76.9,0,1.5-.34,1.8-1.01s.45-1.98.45-3.91v-5.13h11.22v2.87c0,2.4-.15,4.25-.45,5.54s-1.01,2.67-2.12,4.13-2.52,2.56-4.23,3.3-3.85,1.1-6.43,1.1-4.71-.36-6.62-1.08c-1.91-.72-3.4-1.71-4.47-2.97-1.07-1.26-1.8-2.65-2.21-4.16-.41-1.51-.62-3.72-.62-6.61v-11.34c0-3.4.46-6.08,1.38-8.04s2.42-3.47,4.51-4.51c2.09-1.04,4.49-1.57,7.21-1.57,3.32,0,6.06.63,8.22,1.89s3.67,2.93,4.54,5.01,1.3,5.01,1.3,8.77v5.16ZM274,245.42v-2.84c0-2.01-.11-3.31-.32-3.9s-.65-.88-1.32-.88c-.82,0-1.33.25-1.52.75s-.29,1.84-.29,4.03v2.84h3.46Z"/>
      <path class="cls-1" d="M303.71,226.43v6.12h3.19v6.15h-3.19v20.8c0,2.56.13,3.98.4,4.28s1.36.44,3.29.44v6.27h-4.78c-2.7,0-4.62-.11-5.77-.34-1.15-.22-2.17-.74-3.05-1.55-.88-.81-1.43-1.74-1.64-2.78-.21-1.04-.32-3.5-.32-7.37v-19.75h-2.55v-6.15h2.55v-6.12h11.87Z"/>
    </g>
  </g>
</svg>